<?xml version="1.0" encoding="utf-8"?>
<!-- Generator: Adobe Illustrator 23.0.1, SVG Export Plug-In . SVG Version: 6.00 Build 0)  -->
<svg version="1.1" id="Layer_1" xmlns="http://www.w3.org/2000/svg" xmlns:xlink="http://www.w3.org/1999/xlink" x="0px" y="0px"
	 viewBox="0 0 2500 2500" style="enable-background:new 0 0 2500 2500;" xml:space="preserve">
<style type="text/css">
	.st0{fill-rule:evenodd;clip-rule:evenodd;fill:#FFFFFF;}
	.st1{fill-rule:evenodd;clip-rule:evenodd;fill:#0E0C38;}
</style>
<g>
	<path class="st0" d="M0,2500h2158.3c188.7,0,341.7-153,341.7-341.7V341.7C2500,153,2347,0,2158.3,0H341.7C153,0,0,153,0,341.7V2500
		L0,2500z"/>
	<path class="st1" d="M1175.2,1676.2l-80,59.2H1043c-7,0-7-7-7-7c0-20.9,13.9-27.8,27.8-45.2c135.7-97.4,208.7-222.7,208.7-351.4
		c0-97.4-41.7-170.5-132.2-215.7c-69.6-38.3-76.5-52.2-76.5-97.4c0-90.5,76.5-156.6,167-156.6c149.6,0,274.8,142.6,274.8,299.2
		C1505.7,1349.2,1370,1533.5,1175.2,1676.2z"/>
</g>
</svg>
