<?xml version="1.0" encoding="utf-8"?>
<!-- Generator: Adobe Illustrator 23.0.1, SVG Export Plug-In . SVG Version: 6.00 Build 0)  -->
<svg version="1.1" id="bfca6550-aec3-4c0b-b342-e4bc13b78253"
	 xmlns="http://www.w3.org/2000/svg" xmlns:xlink="http://www.w3.org/1999/xlink" x="0px" y="0px" viewBox="0 0 840.5 427.8"
	 style="enable-background:new 0 0 840.5 427.8;" xml:space="preserve">
<style type="text/css">
	.st0{fill:#F99F34;}
	.st1{fill:#3F3D56;}
	.st2{fill:#2D1E6E;}
	.st3{fill:#FFFFFF;}
	.st4{fill:#211B4F;}
	.st5{fill:#E6E6E6;}
	.st6{fill:#F8FF64;}
</style>
<rect class="st0" width="840.5" height="427.8"/>
<rect x="344" y="319.9" class="st1" width="420.3" height="1"/>
<ellipse class="st2" cx="519.4" cy="189.1" rx="38.9" ry="79.5"/>
<path class="st1" d="M523.9,319c-15.6-93.4-0.2-186.5,0-187.4l1.1,0.2c-0.2,0.9-15.5,93.8,0,187L523.9,319z"/>
<rect x="516.8" y="182.2" transform="matrix(0.8818 -0.4717 0.4717 0.8818 -22.7369 274.7957)" class="st1" width="39.9" height="1.1"/>
<rect x="499.1" y="172.2" transform="matrix(0.4719 -0.8817 0.8817 0.4719 94.4624 541.9779)" class="st1" width="1.1" height="39.9"/>
<rect x="665.5" y="249.6" class="st1" width="26.6" height="23.5"/>
<rect x="665.5" y="208.9" class="st1" width="26.6" height="23.1"/>
<rect x="665.5" y="249.6" class="st3" width="26.6" height="23.5"/>
<rect x="665.5" y="208.9" class="st3" width="26.6" height="23.1"/>
<g>
	<rect x="679.1" y="108.9" class="st4" width="23.8" height="82.5"/>
	<polygon class="st4" points="718.6,176 660.6,107 544.2,108 473.6,176.8 475,177.7 474.5,177.7 474.5,320.8 718.5,320.8 
		718.5,177.7 	"/>
	<polygon class="st2" points="660.7,107.1 588.3,192 588.3,320.8 718.5,320.8 718.5,175.9 	"/>
	<path class="st5" d="M570.2,316.6c0,0,0.6-11.9,12.3-10.6"/>
	<circle class="st6" cx="566.9" cy="299.4" r="5.9"/>
	<rect x="565.9" y="309.2" class="st5" width="1.7" height="11.6"/>
</g>
<g>
	<ellipse class="st2" cx="735.6" cy="225.4" rx="28.5" ry="58.1"/>
	<path class="st1" d="M738.7,320.4c-11.4-68.3-0.1-136.3,0-137l1.1,0.2c-0.1,0.7-11.3,68.5,0,136.6L738.7,320.4z"/>
	
		<rect x="733.7" y="220.2" transform="matrix(0.8818 -0.4717 0.4717 0.8818 -15.635 379.052)" class="st1" width="29.2" height="1.1"/>
	
		<rect x="720.5" y="213.1" transform="matrix(0.4719 -0.8817 0.8817 0.4719 180.042 756.0298)" class="st1" width="1.1" height="29.2"/>
</g>
<rect x="547.3" y="243.4" class="st1" width="26.6" height="23.5"/>
<rect x="547.3" y="202.7" class="st1" width="26.6" height="23.1"/>
<rect x="547.3" y="242.9" class="st3" width="26.6" height="23.5"/>
<rect x="547.3" y="202.6" class="st3" width="26.6" height="23.1"/>
<rect x="498.3" y="202.4" class="st3" width="26.6" height="23.5"/>
<ellipse class="st2" cx="466.9" cy="190.6" rx="38.9" ry="79.5"/>
<path class="st1" d="M471.4,320.5c-15.6-93.4-0.2-186.5,0-187.4l1.1,0.2c-0.2,0.9-15.5,93.8,0,187L471.4,320.5z"/>
<rect x="464.3" y="183.7" transform="matrix(0.8818 -0.4717 0.4717 0.8818 -29.6529 250.2097)" class="st1" width="39.9" height="1.1"/>
<rect x="446.6" y="173.7" transform="matrix(0.4719 -0.8817 0.8817 0.4719 65.4113 496.4832)" class="st1" width="1.1" height="39.9"/>
<rect x="498.3" y="242.9" class="st3" width="26.6" height="23.5"/>
<g>
	<path class="st2" d="M263.2,268V161.7c0-7.2-3.8-13.8-10-17.4L161,91.1c-6.2-3.6-13.9-3.6-20.1,0l-92.1,53.2
		c-6.2,3.6-10,10.2-10,17.4V268c0,7.2,3.8,13.8,10,17.4l92.1,53.2c6.2,3.6,13.9,3.6,20.1,0l92.1-53.2
		C259.3,281.8,263.2,275.2,263.2,268z"/>
</g>
<g>
	<path class="st3" d="M98.8,213.8c-2-0.5-3.6-1.2-4.9-2.1l2.4-5.5c1.2,0.8,2.5,1.4,4.1,1.9c1.5,0.5,3.1,0.7,4.6,0.7
		c2.8,0,4.3-0.7,4.3-2.1c0-0.7-0.4-1.3-1.2-1.7c-0.8-0.4-2.1-0.7-3.9-1.1c-2-0.4-3.6-0.9-4.9-1.4s-2.5-1.3-3.4-2.3
		c-0.9-1.1-1.4-2.5-1.4-4.3c0-1.6,0.4-3,1.3-4.3s2.2-2.3,3.9-3.1c1.7-0.8,3.9-1.1,6.4-1.1c1.7,0,3.4,0.2,5.1,0.6s3.1,1,4.4,1.7
		l-2.3,5.5c-2.5-1.3-4.9-2-7.3-2c-1.5,0-2.5,0.2-3.2,0.7c-0.7,0.4-1,1-1,1.7s0.4,1.2,1.2,1.6c0.8,0.4,2.1,0.7,3.9,1.1
		c2,0.4,3.7,0.9,5,1.4s2.4,1.3,3.4,2.3c1,1.1,1.4,2.5,1.4,4.3c0,1.6-0.4,3-1.3,4.3s-2.2,2.3-3.9,3.1c-1.7,0.8-3.9,1.1-6.4,1.1
		C102.8,214.6,100.8,214.3,98.8,213.8z"/>
	<path class="st3" d="M125.8,212.8c-2.2-1.2-3.9-2.8-5.2-4.9c-1.3-2.1-1.9-4.4-1.9-7s0.6-4.9,1.9-7s3-3.7,5.2-4.9s4.7-1.8,7.5-1.8
		s5.3,0.6,7.5,1.8s3.9,2.8,5.2,4.9c1.3,2.1,1.9,4.4,1.9,7s-0.6,4.9-1.9,7c-1.3,2.1-3,3.7-5.2,4.9s-4.7,1.8-7.5,1.8
		S128,214,125.8,212.8z M136.8,207.5c1.1-0.6,1.9-1.5,2.5-2.6s0.9-2.4,0.9-3.9s-0.3-2.8-0.9-3.9c-0.6-1.1-1.5-2-2.5-2.6
		s-2.3-0.9-3.6-0.9s-2.5,0.3-3.6,0.9c-1.1,0.6-1.9,1.5-2.5,2.6s-0.9,2.4-0.9,3.9s0.3,2.8,0.9,3.9c0.6,1.1,1.5,2,2.5,2.6
		c1.1,0.6,2.3,0.9,3.6,0.9S135.8,208.1,136.8,207.5z"/>
	<path class="st3" d="M151.7,187.8h12.4c2.9,0,5.4,0.5,7.6,1.6c2.2,1.1,3.9,2.6,5.2,4.6c1.2,2,1.8,4.3,1.8,6.9c0,2.6-0.6,5-1.8,6.9
		c-1.2,2-2.9,3.5-5.2,4.6c-2.2,1.1-4.8,1.6-7.6,1.6h-12.4V187.8z M163.8,208.1c2.2,0,4.1-0.6,5.4-1.9c1.4-1.3,2-3,2-5.3
		c0-2.2-0.7-4-2-5.3c-1.4-1.3-3.2-1.9-5.4-1.9h-4.7v14.4H163.8z"/>
	<path class="st3" d="M206.4,202.8c0.8,1.1,1.3,2.5,1.3,4c0,2.3-0.9,4.1-2.8,5.3c-1.9,1.3-4.5,1.9-8,1.9h-14.2v-26.2h13.4
		c3.3,0,5.9,0.6,7.6,1.9s2.6,2.9,2.6,5c0,1.2-0.3,2.4-0.9,3.4c-0.6,1-1.5,1.8-2.6,2.3C204.3,200.9,205.5,201.7,206.4,202.8z
		 M190,193.2v5.1h5.1c2.5,0,3.7-0.8,3.7-2.5s-1.2-2.5-3.7-2.5H190V193.2z M200.1,206c0-1.8-1.3-2.7-3.9-2.7H190v5.3h6.2
		C198.8,208.7,200.1,207.8,200.1,206z"/>
</g>
<g>
	<path class="st3" d="M74.5,236.1l-2.9,3v3.4h-1v-13.1h1v8.4l8.2-8.4H81l-5.8,6l6.2,7.2h-1.2L74.5,236.1z"/>
	<path class="st3" d="M89.3,233.6c0.6,0.6,1,1.5,1,2.7v6.2h-0.9v-1.7c-0.3,0.6-0.8,1-1.4,1.3s-1.3,0.5-2.2,0.5
		c-1.1,0-1.9-0.3-2.6-0.8c-0.6-0.5-0.9-1.2-0.9-2s0.3-1.5,0.9-2s1.5-0.8,2.8-0.8h3.4v-0.8c0-0.9-0.2-1.6-0.7-2.1s-1.2-0.7-2.2-0.7
		c-0.6,0-1.3,0.1-1.9,0.3s-1.1,0.5-1.5,0.9l-0.5-0.7c0.5-0.4,1.1-0.8,1.8-1s1.4-0.4,2.2-0.4C87.8,232.7,88.7,233,89.3,233.6z
		 M88.1,241.3c0.6-0.4,1-0.9,1.3-1.6v-1.8H86c-1,0-1.7,0.2-2.1,0.5c-0.4,0.4-0.6,0.8-0.6,1.4c0,0.6,0.2,1.1,0.7,1.5s1.1,0.6,2,0.6
		C86.8,241.9,87.5,241.7,88.1,241.3z"/>
	<path class="st3" d="M96.5,233.3c0.6-0.4,1.4-0.6,2.3-0.6v0.9h-0.2c-1.1,0-1.9,0.3-2.5,1s-0.9,1.6-0.9,2.8v5.1h-0.9v-9.8h0.9v2.1
		C95.4,234.2,95.8,233.6,96.5,233.3z"/>
	<path class="st3" d="M101.4,228.6h0.9v13.9h-0.9V228.6z"/>
	<path class="st3" d="M107.6,242c-0.7-0.4-1.3-1-1.8-1.8s-0.6-1.6-0.6-2.6s0.2-1.8,0.6-2.6s1-1.3,1.8-1.8s1.6-0.6,2.5-0.6
		s1.8,0.2,2.5,0.6s1.3,1,1.8,1.8c0.4,0.8,0.6,1.6,0.6,2.6s-0.2,1.8-0.6,2.6s-1,1.3-1.8,1.8s-1.6,0.6-2.5,0.6S108.3,242.4,107.6,242z
		 M112.1,241.3c0.6-0.3,1.1-0.8,1.4-1.5c0.3-0.6,0.5-1.3,0.5-2.1s-0.2-1.5-0.5-2.1s-0.8-1.1-1.4-1.5c-0.6-0.3-1.3-0.5-2-0.5
		s-1.4,0.2-2,0.5c-0.6,0.4-1.1,0.8-1.4,1.5c-0.3,0.6-0.5,1.3-0.5,2.1s0.2,1.5,0.5,2.1s0.8,1.1,1.4,1.5s1.3,0.5,2,0.5
		C110.9,241.8,111.5,241.6,112.1,241.3z"/>
	<path class="st3" d="M125.5,232.8l-4.4,9.8h-1l-4.4-9.8h1l3.9,8.8l3.9-8.8H125.5z"/>
	<path class="st3" d="M133.3,233.6c0.6,0.6,1,1.5,1,2.7v6.2h-0.9v-1.7c-0.3,0.6-0.8,1-1.4,1.3c-0.6,0.3-1.3,0.5-2.2,0.5
		c-1.1,0-1.9-0.3-2.6-0.8c-0.6-0.5-0.9-1.2-0.9-2s0.3-1.5,0.9-2s1.5-0.8,2.8-0.8h3.4v-0.8c0-0.9-0.2-1.6-0.7-2.1s-1.2-0.7-2.2-0.7
		c-0.6,0-1.3,0.1-1.9,0.3c-0.6,0.2-1.1,0.5-1.5,0.9l-0.5-0.7c0.5-0.4,1.1-0.8,1.8-1c0.7-0.2,1.4-0.4,2.2-0.4
		C131.7,232.7,132.7,233,133.3,233.6z M132.1,241.3c0.6-0.4,1-0.9,1.3-1.6v-1.8H130c-1,0-1.7,0.2-2.1,0.5c-0.4,0.4-0.6,0.8-0.6,1.4
		c0,0.6,0.2,1.1,0.7,1.5s1.1,0.6,2,0.6C130.8,241.9,131.5,241.7,132.1,241.3z"/>
	<path class="st3" d="M153.7,229.4l-5.8,13.1h-1l-5.8-13.1h1l5.3,11.9l5.3-11.9H153.7z"/>
	<path class="st3" d="M163.1,237.9h-8.4c0,0.8,0.2,1.4,0.6,2c0.4,0.6,0.9,1.1,1.5,1.4c0.6,0.3,1.3,0.5,2.1,0.5
		c0.6,0,1.2-0.1,1.8-0.3s1-0.6,1.4-1l0.5,0.6c-0.4,0.5-1,0.9-1.6,1.2s-1.3,0.4-2.1,0.4c-1,0-1.8-0.2-2.6-0.6c-0.8-0.4-1.4-1-1.8-1.8
		c-0.4-0.8-0.6-1.6-0.6-2.6c0-0.9,0.2-1.8,0.6-2.6c0.4-0.8,1-1.3,1.7-1.8c0.7-0.4,1.5-0.6,2.4-0.6s1.7,0.2,2.4,0.6s1.3,1,1.7,1.8
		s0.6,1.6,0.6,2.5L163.1,237.9z M156.6,234c-0.6,0.3-1,0.7-1.3,1.3s-0.5,1.2-0.6,1.9h7.5c0-0.7-0.2-1.3-0.6-1.9
		c-0.3-0.5-0.8-1-1.3-1.3c-0.6-0.3-1.2-0.5-1.9-0.5S157.1,233.7,156.6,234z"/>
	<path class="st3" d="M166.2,242.3c-0.7-0.2-1.3-0.5-1.7-0.9l0.4-0.8c0.4,0.3,0.9,0.6,1.5,0.8s1.3,0.3,2,0.3c1,0,1.7-0.2,2.2-0.5
		s0.7-0.8,0.7-1.4c0-0.4-0.1-0.7-0.4-1s-0.6-0.4-0.9-0.5s-0.9-0.2-1.6-0.4c-0.8-0.1-1.4-0.3-1.9-0.4s-0.9-0.4-1.2-0.8
		c-0.3-0.4-0.5-0.9-0.5-1.5c0-0.8,0.3-1.4,1-1.9c0.6-0.5,1.6-0.8,2.7-0.8c0.6,0,1.2,0.1,1.9,0.3c0.6,0.2,1.1,0.4,1.5,0.7l-0.4,0.8
		c-0.4-0.3-0.9-0.5-1.4-0.7s-1-0.2-1.6-0.2c-0.9,0-1.6,0.2-2.1,0.5s-0.7,0.8-0.7,1.3c0,0.4,0.1,0.8,0.4,1c0.3,0.2,0.6,0.4,1,0.5
		s0.9,0.2,1.6,0.4c0.8,0.1,1.4,0.3,1.8,0.4c0.5,0.2,0.9,0.4,1.2,0.8c0.3,0.4,0.5,0.8,0.5,1.4c0,0.8-0.3,1.5-1,1.9
		c-0.7,0.5-1.6,0.7-2.8,0.7C167.7,242.6,166.9,242.5,166.2,242.3z"/>
	<path class="st3" d="M180.1,228.6h0.9v17.5h-0.9V228.6z"/>
	<path class="st3" d="M197.8,241.7v0.9h-9v-0.7l5.5-5.5c0.7-0.7,1.2-1.3,1.5-1.9c0.3-0.5,0.4-1.1,0.4-1.6c0-0.8-0.3-1.5-0.9-2
		s-1.4-0.7-2.5-0.7c-0.8,0-1.5,0.1-2.2,0.4c-0.6,0.3-1.2,0.6-1.6,1.1l-0.7-0.6c0.5-0.6,1.1-1,1.9-1.3s1.6-0.5,2.6-0.5
		c1.3,0,2.3,0.3,3.1,0.9c0.8,0.6,1.1,1.5,1.1,2.5c0,0.7-0.2,1.3-0.4,1.9c-0.3,0.6-0.9,1.3-1.7,2.1l-4.8,4.8h7.7V241.7z"/>
	<path class="st3" d="M202,241.8c-0.8-0.5-1.4-1.3-1.8-2.3c-0.4-1-0.6-2.2-0.6-3.5s0.2-2.5,0.6-3.5c0.4-1,1-1.8,1.8-2.3
		s1.7-0.8,2.7-0.8s1.9,0.3,2.7,0.8s1.4,1.3,1.8,2.3c0.4,1,0.6,2.2,0.6,3.5s-0.2,2.5-0.6,3.5c-0.4,1-1,1.8-1.8,2.3s-1.7,0.8-2.7,0.8
		S202.8,242.4,202,241.8z M206.9,241.1c0.6-0.5,1.1-1.1,1.5-2c0.3-0.9,0.5-1.9,0.5-3.1s-0.2-2.2-0.5-3.1c-0.4-0.9-0.8-1.5-1.5-2
		c-0.6-0.5-1.4-0.7-2.2-0.7s-1.6,0.2-2.2,0.7c-0.6,0.5-1.1,1.1-1.5,2s-0.5,1.9-0.5,3.1s0.2,2.2,0.5,3.1c0.3,0.9,0.8,1.5,1.5,2
		c0.6,0.5,1.4,0.7,2.2,0.7S206.2,241.5,206.9,241.1z"/>
	<path class="st3" d="M220.6,241.7v0.9h-9v-0.7l5.5-5.5c0.7-0.7,1.2-1.3,1.5-1.9c0.3-0.5,0.4-1.1,0.4-1.6c0-0.8-0.3-1.5-0.9-2
		s-1.4-0.7-2.5-0.7c-0.8,0-1.5,0.1-2.2,0.4c-0.6,0.3-1.2,0.6-1.6,1.1l-0.7-0.6c0.5-0.6,1.1-1,1.9-1.3s1.6-0.5,2.6-0.5
		c1.3,0,2.3,0.3,3.1,0.9c0.8,0.6,1.1,1.5,1.1,2.5c0,0.7-0.2,1.3-0.4,1.9c-0.3,0.6-0.9,1.3-1.7,2.1l-4.8,4.8h7.7V241.7z"/>
	<path class="st3" d="M224.8,241.8c-0.8-0.5-1.4-1.3-1.8-2.3c-0.4-1-0.6-2.2-0.6-3.5s0.2-2.5,0.6-3.5c0.4-1,1-1.8,1.8-2.3
		s1.7-0.8,2.7-0.8s1.9,0.3,2.7,0.8s1.4,1.3,1.8,2.3c0.4,1,0.6,2.2,0.6,3.5s-0.2,2.5-0.6,3.5c-0.4,1-1,1.8-1.8,2.3s-1.7,0.8-2.7,0.8
		S225.6,242.4,224.8,241.8z M229.7,241.1c0.6-0.5,1.1-1.1,1.5-2c0.3-0.9,0.5-1.9,0.5-3.1s-0.2-2.2-0.5-3.1c-0.4-0.9-0.8-1.5-1.5-2
		c-0.6-0.5-1.4-0.7-2.2-0.7s-1.6,0.2-2.2,0.7c-0.6,0.5-1.1,1.1-1.5,2s-0.5,1.9-0.5,3.1s0.2,2.2,0.5,3.1c0.3,0.9,0.8,1.5,1.5,2
		c0.6,0.5,1.4,0.7,2.2,0.7S229,241.5,229.7,241.1z"/>
</g>
</svg>
